# xmcd
#
# Track frame offsets:
#	150
#	16366
#	38476
#	53418
#	66366
#	82358
#	97159
#	109103
#	126472
#	137667
#	151250
#	165193
#	181110
#
# Disc length: 2656 seconds
#
# Revision: 1
# Processed by: cddbd v1.5.2PL0 Copyright (c) Steve Scherf et al.
# Submitted via: audiograbber 1.83.01
#
DISCID=a50a5e0d
DTITLE=Dìdkové z Kentucky - Ohlédnutí 20 let
DYEAR=2007
DGENRE=Folk
TTITLE0=Snís muj kamaráde
TTITLE1=Aljaska
TTITLE2=Masérská
TTITLE3=Nad rekou svítá
TTITLE4=Proc, vís proc
TTITLE5=Bohousovi
TTITLE6=Císlo sedm
TTITLE7=Hlava to nebere
TTITLE8=Ríkej mi brácho
TTITLE9=Gringo
TTITLE10=Posták Ben
TTITLE11=Senorito pricházím
TTITLE12=Ohlédnutí
EXTD=
EXTT0=
EXTT1=
EXTT2=
EXTT3=
EXTT4=
EXTT5=
EXTT6=
EXTT7=
EXTT8=
EXTT9=
EXTT10=
EXTT11=
EXTT12=
PLAYORDER=
